<svg xmlns="http://www.w3.org/2000/svg" viewBox="0 0 400 300">
  <defs>
    <linearGradient id="bg2" x1="0" y1="0" x2="1" y2="1">
      <stop offset="0%" stop-color="#ffe0ec"/>
      <stop offset="100%" stop-color="#ffc4dd"/>
    </linearGradient>
  </defs>
  <rect width="400" height="300" fill="url(#bg2)"/>
  <rect x="24" y="24" width="352" height="252" rx="16" fill="#ffffff" opacity="0.55"/>
  <rect x="24" y="24" width="352" height="34" rx="16" fill="#e0498a" opacity="0.6"/>
  <circle cx="42" cy="41" r="5" fill="#ffffff"/>
  <circle cx="58" cy="41" r="5" fill="#ffffff" opacity="0.7"/>
  <circle cx="74" cy="41" r="5" fill="#ffffff" opacity="0.5"/>

  <!-- calendar grid -->
  <g fill="#ffffff" opacity="0.7">
    <rect x="44" y="76" width="312" height="150" rx="10"/>
  </g>
  <g stroke="#e0498a" stroke-opacity="0.35" stroke-width="1.5">
    <line x1="97" y1="76" x2="97" y2="226"/>
    <line x1="150" y1="76" x2="150" y2="226"/>
    <line x1="203" y1="76" x2="203" y2="226"/>
    <line x1="256" y1="76" x2="256" y2="226"/>
    <line x1="309" y1="76" x2="309" y2="226"/>
    <line x1="44" y1="112" x2="356" y2="112"/>
    <line x1="44" y1="148" x2="356" y2="148"/>
    <line x1="44" y1="184" x2="356" y2="184"/>
  </g>
  <circle cx="230" cy="130" r="12" fill="#e0498a" opacity="0.55"/>
  <path d="M224 130 l4 4 l8 -8" stroke="#ffffff" stroke-width="2" fill="none" stroke-linecap="round" stroke-linejoin="round"/>
  <circle cx="123" cy="166" r="6" fill="#e0498a" opacity="0.4"/>
  <circle cx="283" cy="202" r="6" fill="#e0498a" opacity="0.4"/>

  <rect x="44" y="238" width="150" height="20" rx="10" fill="#e0498a" opacity="0.5"/>
  <rect x="204" y="238" width="70" height="20" rx="10" fill="#ffffff" opacity="0.6"/>
</svg>
